HIERARCHY
ROOT Hips
{
    OFFSET 0.000000 0.000000 0.000000
    CHANNELS 6 Xposition Yposition Zposition Zrotation Xrotation Yrotation
    JOINT Spine
    {
        OFFSET -0.000000 14.517291 0.000000
        CHANNELS 3 Zrotation Xrotation Yrotation
        JOINT Spine1
        {
            OFFSET -0.000000 37.558300 0.000000
            CHANNELS 3 Zrotation Xrotation Yrotation
            JOINT Neck
            {
                OFFSET -0.000000 37.404057 3.400369
                CHANNELS 3 Zrotation Xrotation Yrotation
                JOINT Head
                {
                    OFFSET -0.000000 24.785618 -3.540803
                    CHANNELS 3 Zrotation Xrotation Yrotation
                    End Site
                    {
                        OFFSET -0.000000 35.408028 0.000000
                    }
                }
            }
            JOINT LeftShoulder
            {
                OFFSET 6.992933 33.973492 -0.192664
                CHANNELS 3 Zrotation Xrotation Yrotation
                JOINT LeftArm
                {
                    OFFSET 21.527611 0.000000 0.000000
                    CHANNELS 3 Zrotation Xrotation Yrotation
                    JOINT LeftForeArm
                    {
                        OFFSET 56.353916 0.000000 0.000000
                        CHANNELS 3 Zrotation Xrotation Yrotation
                        JOINT LeftHand
                        {
                            OFFSET 47.774071 0.000000 0.000000
                            CHANNELS 3 Zrotation Xrotation Yrotation
                            End Site
                            {
                                OFFSET 26.556021 0.000000 0.000000
                            }
                        }
                    }
                }
            }
            JOINT RightShoulder
            {
                OFFSET -7.065357 33.973492 -0.192664
                CHANNELS 3 Zrotation Xrotation Yrotation
                JOINT RightArm
                {
                    OFFSET -21.527611 0.000000 0.000000
                    CHANNELS 3 Zrotation Xrotation Yrotation
                    JOINT RightForeArm
                    {
                        OFFSET -56.353916 0.000000 0.000000
                        CHANNELS 3 Zrotation Xrotation Yrotation
                        JOINT RightHand
                        {
                            OFFSET -47.774071 0.000000 0.000000
                            CHANNELS 3 Zrotation Xrotation Yrotation
                            End Site
                            {
                                OFFSET -26.556021 0.000000 0.000000
                            }
                        }
                    }
                }
            }
        }
    }
    JOINT LeftUpLeg
    {
        OFFSET 17.704014 0.000000 0.000000
        CHANNELS 3 Zrotation Xrotation Yrotation
        JOINT LeftLeg
        {
            OFFSET -0.000000 -81.181816 0.000000
            CHANNELS 3 Zrotation Xrotation Yrotation
            JOINT LeftFoot
            {
                OFFSET -0.000000 -62.821102 0.000000
                CHANNELS 3 Zrotation Xrotation Yrotation
                JOINT LeftToeBase
                {
                    OFFSET -0.000000 -11.507608 26.556021
                    CHANNELS 3 Zrotation Xrotation Yrotation
                    End Site
                    {
                        OFFSET -0.000000 0.000000 7.081605
                    }
                }
            }
        }
    }
    JOINT RightUpLeg
    {
        OFFSET -17.704014 0.000000 0.000000
        CHANNELS 3 Zrotation Xrotation Yrotation
        JOINT RightLeg
        {
            OFFSET -0.000000 -81.181816 0.000000
            CHANNELS 3 Zrotation Xrotation Yrotation
            JOINT RightFoot
            {
                OFFSET -0.000000 -62.821102 0.000000
                CHANNELS 3 Zrotation Xrotation Yrotation
                JOINT RightToeBase
                {
                    OFFSET -0.000000 -11.507608 26.556021
                    CHANNELS 3 Zrotation Xrotation Yrotation
                    End Site
                    {
                        OFFSET -0.000000 0.000000 7.081605
                    }
                }
            }
        }
    }
}
MOTION
Frames:    11
Frame Time:    0.008333
-9.515834    157.857971    -93.194878    -2.513761    -5.906807    47.056557    -0.529309    -3.433912    -1.055652    -4.762722    3.880266    -0.186913    0.545148    -1.902180    -19.038149    14.402965    2.745414    -18.285955    5.804368    6.741114    -20.260838    -33.808155    19.981550    -49.677109    -4.639109    -18.916813    -114.562866    1.894445    -25.648369    -2.906163    -13.830276    -4.995066    -4.999867    20.267244    -19.547977    54.208977    -12.214895    -25.778244    24.688400    8.642105    -21.247190    29.243317    22.511549    1.388906    -3.324979    -9.926296    23.672976    -19.608664    -2.895778    -24.178268    41.929958    0.000000    0.000000    0.000000    -10.615225    -12.861398    -20.216530    4.282168    13.285405    -19.126759    6.302035    10.771383    -9.949564    0.000000    0.000000    0.000000    
-9.521072    157.857758    -93.197777    -2.515239    -5.910738    47.054916    -0.518958    -3.434625    -1.046413    -4.779203    3.888796    -0.182951    0.543690    -1.920429    -19.037716    14.386081    2.764897    -18.289700    5.804637    6.737169    -20.247118    -33.804298    19.980659    -49.662258    -4.664334    -18.856701    -114.562622    1.879113    -25.626255    -2.915175    -13.855538    -5.029756    -5.006905    20.384632    -19.908972    54.250359    -12.382253    -25.597681    25.259960    8.394288    -21.019480    29.327602    22.512802    1.397521    -3.329966    -9.922620    23.655857    -19.595989    -2.878178    -24.163530    41.921276    0.000000    0.000000    0.000000    -10.614089    -12.868163    -20.228403    4.279532    13.297992    -19.116318    6.293756    10.780610    -9.933475    0.000000    0.000000    0.000000    
-9.528843    157.859406    -93.196671    -2.516905    -5.916564    47.052868    -0.526695    -3.427662    -1.039260    -4.763344    3.886493    -0.181126    0.545892    -1.922246    -19.034550    14.362537    2.755464    -18.288210    5.791048    6.738188    -20.237940    -33.792702    19.998657    -49.640148    -4.696579    -18.821047    -114.578217    1.877950    -25.639965    -2.923148    -13.900973    -5.082191    -4.999695    20.470480    -20.197136    54.253212    -12.625532    -25.384804    25.782511    8.229166    -20.725508    29.408445    22.518333    1.401904    -3.318309    -9.911717    23.653154    -19.623253    -2.891079    -24.175589    41.932819    0.000000    0.000000    0.000000    -10.599619    -12.882816    -20.256544    4.245982    13.326399    -19.140066    6.305134    10.794735    -9.878695    0.000000    0.000000    0.000000    
-9.535495    157.857864    -93.202225    -2.516237    -5.910189    47.048161    -0.537230    -3.429347    -1.020647    -4.764370    3.890207    -0.174611    0.553422    -1.897222    -19.040104    14.358665    2.711551    -18.290112    5.796851    6.741408    -20.245605    -33.790100    19.991049    -49.619339    -4.717075    -18.757618    -114.578056    1.883178    -25.608816    -2.936646    -13.930614    -5.128002    -5.026610    20.522470    -20.434525    54.274258    -12.883619    -25.228727    26.267538    8.078156    -20.482965    29.524464    22.510908    1.398375    -3.314091    -9.911637    23.651457    -19.587767    -2.898468    -24.176737    41.902050    0.000000    0.000000    0.000000    -10.608537    -12.893836    -20.253975    4.252549    13.331060    -19.153755    6.287352    10.793763    -9.851711    0.000000    0.000000    0.000000    
-9.542287    157.860107    -93.205688    -2.521144    -5.914748    47.036655    -0.530044    -3.425468    -1.011739    -4.769030    3.884536    -0.171847    0.541611    -1.893564    -19.041210    14.368935    2.717387    -18.288874    5.793561    6.749711    -20.235857    -33.792786    19.971092    -49.589050    -4.755116    -18.682177    -114.584816    1.861547    -25.591219    -2.956755    -13.966146    -5.174939    -5.023493    20.592667    -20.706022    54.295910    -13.067286    -25.032043    26.757755    7.802588    -20.249950    29.545496    22.518353    1.405839    -3.311484    -9.912272    23.638271    -19.582216    -2.904960    -24.176003    41.903984    0.000000    0.000000    0.000000    -10.598731    -12.902989    -20.279861    4.243899    13.336976    -19.130213    6.288514    10.806030    -9.847641    0.000000    0.000000    0.000000    
-9.548980    157.860184    -93.208488    -2.521925    -5.916703    47.026241    -0.532490    -3.425879    -0.992690    -4.775284    3.893168    -0.164820    0.565805    -1.884013    -19.037113    14.350531    2.685433    -18.286623    5.808006    6.743775    -20.243954    -33.793034    19.981838    -49.569767    -4.776755    -18.649830    -114.593483    1.895354    -25.592594    -2.941370    -13.995454    -5.226313    -5.043532    20.618151    -20.902151    54.301537    -13.311408    -24.885689    27.181950    7.754240    -19.995386    29.700415    22.521578    1.406621    -3.287233    -9.910416    23.645039    -19.590273    -2.909204    -24.177500    41.904182    0.000000    0.000000    0.000000    -10.595410    -12.907864    -20.294186    4.239071    13.340086    -19.106546    6.297891    10.815238    -9.851105    0.000000    0.000000    0.000000    
-9.551920    157.860519    -93.210114    -2.522985    -5.918665    47.025284    -0.531832    -3.423180    -0.982244    -4.784628    3.890979    -0.161100    0.587681    -1.872229    -19.033447    14.336857    2.665970    -18.285473    5.815216    6.749343    -20.249453    -33.796173    19.983364    -49.553349    -4.778270    -18.620266    -114.584946    1.873438    -25.565165    -2.951282    -14.020265    -5.265698    -5.052589    20.565384    -21.004129    54.267982    -13.604901    -24.847683    27.578352    7.698020    -19.845287    29.847610    22.524799    1.406631    -3.304761    -9.915213    23.643623    -19.592560    -2.903320    -24.176888    41.916309    0.000000    0.000000    0.000000    -10.588431    -12.904660    -20.299566    4.232733    13.326132    -19.095272    6.293182    10.824095    -9.856295    0.000000    0.000000    0.000000    
-9.556082    157.862305    -93.214195    -2.524046    -5.918551    47.019871    -0.530697    -3.431098    -0.975026    -4.790892    3.903826    -0.158019    0.587089    -1.859968    -19.032648    14.341843    2.649159    -18.281792    5.813526    6.755322    -20.247801    -33.779140    19.989492    -49.537277    -4.796373    -18.614330    -114.595406    1.871322    -25.586483    -2.948085    -14.064982    -5.305890    -5.061469    20.577120    -21.185474    54.273560    -13.799953    -24.720469    27.961956    7.711457    -19.611498    29.940674    22.525936    1.406744    -3.318790    -9.925956    23.635941    -19.560606    -2.909901    -24.176332    41.914238    0.000000    0.000000    0.000000    -10.591043    -12.913220    -20.317011    4.240136    13.360535    -19.089241    6.286830    10.786747    -9.844820    0.000000    0.000000    0.000000    
-9.560175    157.860748    -93.216492    -2.524826    -5.919471    47.015713    -0.527430    -3.435580    -0.966040    -4.808393    3.909612    -0.154133    0.616589    -1.850532    -19.027739    14.324042    2.636114    -18.281908    5.817576    6.762099    -20.254255    -33.769413    19.998405    -49.522026    -4.794786    -18.617523    -114.586899    1.859452    -25.586260    -2.970443    -14.097563    -5.356248    -5.076777    20.570524    -21.334562    54.268154    -13.936880    -24.613880    28.331999    7.673949    -19.424328    30.060911    22.532166    1.413915    -3.333089    -9.939758    23.620132    -19.584488    -2.892442    -24.177336    41.952023    0.000000    0.000000    0.000000    -10.580752    -12.902481    -20.317005    4.224885    13.307450    -19.096560    6.303424    10.844316    -9.832909    0.000000    0.000000    0.000000    
-9.564465    157.863724    -93.219902    -2.527625    -5.917495    47.014736    -0.526434    -3.442436    -0.963806    -4.821222    3.916615    -0.152618    0.631291    -1.847653    -19.022057    14.319625    2.632604    -18.278418    5.823378    6.764347    -20.256813    -33.778309    19.985170    -49.503811    -4.809953    -18.586721    -114.584442    1.875530    -25.578218    -2.962970    -14.136941    -5.388662    -5.084468    20.563931    -21.493057    54.265572    -14.064328    -24.490108    28.666393    7.592398    -19.236837    30.173172    22.532442    1.417941    -3.346691    -9.945724    23.598269    -19.563610    -2.893643    -24.172403    41.954929    0.000000    0.000000    0.000000    -10.586282    -12.888405    -20.277782    4.263847    13.271990    -19.076582    6.282024    10.839661    -9.890877    0.000000    0.000000    0.000000    
-9.568533    157.865860    -93.219650    -2.530972    -5.919109    47.012699    -0.532612    -3.456457    -0.952214    -4.826005    3.929589    -0.148147    0.685334    -1.839096    -19.015015    14.272992    2.617018    -18.283356    5.831651    6.773708    -20.279692    -33.790535    19.969452    -49.488968    -4.821364    -18.559460    -114.573929    1.895628    -25.567389    -2.958430    -14.165182    -5.430435    -5.100722    20.572571    -21.664467    54.279106    -14.129095    -24.347811    28.970209    7.453676    -19.069811    30.188936    22.536549    1.428813    -3.362465    -9.946763    23.572548    -19.550146    -2.900759    -24.174753    41.947216    0.000000    0.000000    0.000000    -10.574329    -12.888617    -20.303663    4.244737    13.265923    -19.049585    6.274199    10.846572    -9.879450    0.000000    0.000000    0.000000    
